<svg width="33" height="32" viewBox="0 0 33 32" fill="none" xmlns="http://www.w3.org/2000/svg">
<g id="Done_ring_round">
<path id="Line 1" d="M12.5 13.3333L17.0914 16.7769C17.5099 17.0908 18.0996 17.0291 18.444 16.6354L27.1667 6.66666" stroke="#F7F7F7" stroke-width="3" stroke-linecap="round"/>
<path id="Ellipse 47" d="M28.5 16C28.5 18.5073 27.7146 20.9517 26.2542 22.9897C24.7937 25.0278 22.7315 26.5572 20.3573 27.3632C17.983 28.1691 15.4159 28.2111 13.0166 27.4833C10.6172 26.7554 8.50612 25.2943 6.97976 23.3051C5.4534 21.3159 4.58846 18.8986 4.50642 16.3926C4.42439 13.8867 5.12937 11.4179 6.52236 9.33316C7.91536 7.2484 9.92638 5.65233 12.273 4.76913C14.6196 3.88592 17.1839 3.75995 19.6058 4.40889" stroke="#F7F7F7" stroke-width="3" stroke-linecap="round"/>
</g>
</svg>
