<svg width="32" height="32" viewBox="0 0 32 32" fill="none" xmlns="http://www.w3.org/2000/svg">
<g id="dotpoints-02">
<g id="Icon">
<path d="M8 6.66669C8 7.77126 7.10457 8.66669 6 8.66669C4.89543 8.66669 4 7.77126 4 6.66669C4 5.56212 4.89543 4.66669 6 4.66669C7.10457 4.66669 8 5.56212 8 6.66669Z" fill="white"/>
<path d="M8 25.3334C8 26.4379 7.10457 27.3334 6 27.3334C4.89543 27.3334 4 26.4379 4 25.3334C4 24.2288 4.89543 23.3334 6 23.3334C7.10457 23.3334 8 24.2288 8 25.3334Z" fill="white"/>
<path d="M8 16C8 17.1046 7.10457 18 6 18C4.89543 18 4 17.1046 4 16C4 14.8955 4.89543 14 6 14C7.10457 14 8 14.8955 8 16Z" fill="white"/>
<path d="M28 6.66669L13.3333 6.66669M28 25.3334L13.3333 25.3334M28 16L13.3333 16M8 6.66669C8 7.77126 7.10457 8.66669 6 8.66669C4.89543 8.66669 4 7.77126 4 6.66669C4 5.56212 4.89543 4.66669 6 4.66669C7.10457 4.66669 8 5.56212 8 6.66669ZM8 25.3334C8 26.4379 7.10457 27.3334 6 27.3334C4.89543 27.3334 4 26.4379 4 25.3334C4 24.2288 4.89543 23.3334 6 23.3334C7.10457 23.3334 8 24.2288 8 25.3334ZM8 16C8 17.1046 7.10457 18 6 18C4.89543 18 4 17.1046 4 16C4 14.8955 4.89543 14 6 14C7.10457 14 8 14.8955 8 16Z" stroke="white" stroke-width="4" stroke-linecap="round" stroke-linejoin="round"/>
</g>
</g>
</svg>
